<?xml version="1.0" encoding="UTF-8"?>
<svg version="1.1" xmlns="http://www.w3.org/2000/svg" width="1024" height="1024">
<path d="M0 0 C337.92 0 675.84 0 1024 0 C1024 337.92 1024 675.84 1024 1024 C686.08 1024 348.16 1024 0 1024 C0 686.08 0 348.16 0 0 Z " fill="#FDFDFD" transform="translate(0,0)"/>
<path d="M0 0 C0.69303223 0.07476562 1.38606445 0.14953125 2.10009766 0.2265625 C41.05450051 4.57833442 78.7756656 22.23720965 109.15917969 46.53369141 C110.72951047 47.7845411 112.31983484 49.01022211 113.9140625 50.23046875 C127.65293216 60.96006937 139.8121357 73.87997755 150 88 C150.59433838 88.81911865 150.59433838 88.81911865 151.20068359 89.65478516 C153.88592684 93.3814031 156.46102554 97.17266117 159 101 C159.94746094 102.39798828 159.94746094 102.39798828 160.9140625 103.82421875 C178.89488624 131.53540596 188.56837431 162.51919857 193 195 C193.16689331 196.15991455 193.16689331 196.15991455 193.3371582 197.34326172 C195.64754985 215.1277619 194.8728224 234.30327142 192 252 C191.8546582 252.89928223 191.70931641 253.79856445 191.55957031 254.72509766 C187.83769368 276.696056 180.63841953 297.43168656 170 317 C169.51144531 317.95261719 169.02289062 318.90523437 168.51953125 319.88671875 C159.30293643 337.57122142 146.73964419 353.89302435 132.25 367.5625 C125.71364214 374.00771343 120.4506416 381.64357507 115 389 C114.30656494 389.92570801 114.30656494 389.92570801 113.59912109 390.87011719 C106.65278726 400.16132559 100.67003365 409.88502431 95 420 C94.60393555 420.7002832 94.20787109 421.40056641 93.79980469 422.12207031 C81.92385655 443.25557009 74.58536473 466.26250453 68.76245117 489.73632812 C67.40338451 493.77131566 64.76148945 495.85779095 61.2968502 498.10437965 C58.10889512 499.34747223 55.05920237 499.2825909 51.68789673 499.26742554 C50.94958945 499.27195665 50.21128217 499.27648776 49.45060194 499.28115618 C46.97563071 499.29382064 44.50087896 499.29217851 42.02587891 499.29052734 C40.25179257 499.29651131 38.47770884 499.30331655 36.70362854 499.31088257 C31.88335443 499.32856294 27.06315132 499.3332388 22.24284792 499.33451414 C18.21945869 499.33641274 14.19608601 499.34376981 10.17270315 499.35085833 C0.68055659 499.36714754 -8.81155202 499.37202679 -18.30371094 499.37060547 C-28.09672891 499.3694038 -37.88952658 499.39050955 -47.6824888 499.4220928 C-56.08939825 499.44824013 -64.49623568 499.45897342 -72.90318549 499.45769465 C-77.9246753 499.45718457 -82.94596935 499.462893 -87.96741867 499.48405075 C-92.69035769 499.5034072 -97.41291368 499.50357539 -102.13586617 499.48901749 C-103.86846666 499.48692508 -105.60109096 499.49165596 -107.33365059 499.5037384 C-109.70086074 499.51917646 -112.06674777 499.5098935 -114.43392944 499.49447632 C-115.11798556 499.50476344 -115.80204167 499.51505057 -116.50682676 499.52564943 C-121.42593789 499.45495286 -124.18272085 498.02177707 -128 495 C-130.72203248 492.07855804 -131.59747801 489.48247564 -132.47265625 485.6171875 C-132.72700439 484.5454126 -132.98135254 483.4736377 -133.2434082 482.36938477 C-133.5137085 481.21623779 -133.78400879 480.06309082 -134.0625 478.875 C-144.78281034 435.60662822 -167.49344639 393.75026926 -199.5625 362.5 C-232.96226786 329.6760902 -255.78132217 277.90045846 -256.23828125 231.12890625 C-256.24812042 230.29781845 -256.25795959 229.46673065 -256.26809692 228.61045837 C-256.66139332 186.73511447 -248.61344864 148.7131796 -228 112 C-227.61553711 111.31244629 -227.23107422 110.62489258 -226.83496094 109.91650391 C-221.61205089 100.66637174 -215.70284829 92.23120997 -209 84 C-208.18144531 82.97648437 -207.36289062 81.95296875 -206.51953125 80.8984375 C-194.93522839 66.6463019 -181.81325048 53.84823853 -167 43 C-165.86032863 42.14238995 -164.72100752 41.28431424 -163.58203125 40.42578125 C-155.14415747 34.14907418 -146.28283275 28.92213357 -137 24 C-136.36368652 23.65727051 -135.72737305 23.31454102 -135.07177734 22.96142578 C-118.96661358 14.33262683 -101.91537871 7.69180132 -84 4 C-83.1853125 3.83016602 -82.370625 3.66033203 -81.53125 3.48535156 C-75.37186926 2.2181873 -69.19704465 1.06713873 -63 0 C-62.30438965 -0.12149414 -61.6087793 -0.24298828 -60.89208984 -0.36816406 C-40.79050934 -3.75294892 -20.14456764 -2.23606697 0 0 Z " fill="#0189ED" transform="translate(543,244)"/>
<path d="M0 0 C-0.95519531 0.4846875 -1.91039062 0.969375 -2.89453125 1.46875 C-10.33972261 5.30822011 -17.19002774 9.29409724 -23.828125 14.43359375 C-26 16 -26 16 -29 17 C-29 57.59 -29 98.18 -29 140 C1.03 140 31.06 140 62 140 C62 109.64 62 79.28 62 48 C87.41 48 112.82 48 139 48 C139.22091809 76.86685737 139.40537832 105.73306975 139.51065329 134.60056397 C139.52315869 138.01723944 139.53610208 141.43391313 139.54931641 144.85058594 C139.55193951 145.53071513 139.55456261 146.21084433 139.55726521 146.9115835 C139.60064659 157.88956592 139.67941758 168.86701871 139.77152796 179.8446881 C139.86541395 191.12902954 139.91991794 202.41310882 139.94088495 213.69786036 C139.95387167 220.02809843 139.98418357 226.35713983 140.05730057 232.68699265 C140.12570476 238.65781311 140.14601097 244.62695605 140.13107681 250.59813118 C140.13380464 252.77729125 140.15338345 254.95651349 140.19205475 257.13533211 C140.44827457 272.32992687 137.70724432 282.48389059 129 295 C128.29344584 296.03938406 127.58689167 297.07876812 126.85892677 298.14964867 C124.98100336 300.8305694 123.00222974 303.41054387 121 306 C119.98990373 307.3472491 118.98228185 308.6963554 117.9765625 310.046875 C105.95324667 326.18103709 105.95324667 326.18103709 100 332 C99.09121094 332.92039062 98.18242188 333.84078125 97.24609375 334.7890625 C96.31925781 335.72492188 95.39242187 336.66078125 94.4375 337.625 C93.96892578 338.10195313 93.50035156 338.57890625 93.01757812 339.0703125 C90.49162151 341.61393314 88.00960515 344.03750036 85 346 C84.34 346 83.68 346 83 346 C83 346.66 83 347.32 83 348 C80.76995443 349.8886179 78.53572008 351.64268403 76.1875 353.375 C75.46828369 353.90738281 74.74906738 354.43976563 74.00805664 354.98828125 C54.87162661 368.96097793 34.2366311 380.60679924 12.1875 389.3125 C10.7010498 389.89970825 10.7010498 389.89970825 9.18457031 390.4987793 C3.99545325 392.47194427 3.99545325 392.47194427 2 393 C1.34 392.67 0.68 392.34 0 392 C1.05574219 391.34257813 1.05574219 391.34257813 2.1328125 390.671875 C10.75070796 385.136621 18.41292223 378.85901248 26 372 C26.75152344 371.32195312 27.50304687 370.64390625 28.27734375 369.9453125 C36.76574856 361.85615781 43.72391103 352.09292928 50.3125 342.4375 C50.69647949 341.88570068 51.08045898 341.33390137 51.47607422 340.76538086 C52.72952139 338.88413372 53.85442282 336.94904729 55 335 C55.50070511 334.24496185 56.00141022 333.48992371 56.51728821 332.71200562 C63.18881729 321.01463977 61.85514265 307.97985987 61.8046875 294.91796875 C61.81595003 292.29094734 61.82983604 289.66393598 61.84622192 287.03694153 C61.88036869 280.86073119 61.88452879 274.68489209 61.87749684 268.50860626 C61.87033084 260.77581026 61.90393789 253.04325495 61.9375 245.31054688 C61.99708971 231.54020782 61.99575698 217.77071395 62 204 C32.3 204 2.6 204 -28 204 C-28 234.36 -28 264.72 -28 296 C-53.41 296 -78.82 296 -105 296 C-105.28681598 265.48515609 -105.52675847 234.97155607 -105.66384928 204.45579148 C-105.68010767 200.84983843 -105.69693394 197.24388824 -105.71411133 193.63793945 C-105.71752136 192.92008671 -105.7209314 192.20223396 -105.72444477 191.4626281 C-105.78094969 179.85249851 -105.88341231 168.2432092 -106.00298635 156.63357743 C-106.12473444 144.71307596 -106.19680086 132.79301328 -106.22315043 120.87191564 C-106.23935923 114.17882177 -106.27982236 107.48774822 -106.37449074 100.79524803 C-106.46293132 94.49176969 -106.48991277 88.19097224 -106.47039986 81.88693237 C-106.4739677 79.57738468 -106.49971651 77.26774465 -106.54967117 74.95873451 C-106.92698632 56.61400152 -106.92698632 56.61400152 -102.1456356 51.22634315 C-99.02806958 48.328729 -95.65244822 46.16843723 -92 44 C-90.66647751 42.98928263 -89.34294798 41.96456312 -88.046875 40.90625 C-86.95286157 40.097435 -85.85395014 39.29519883 -84.75 38.5 C-84.1297998 38.05188965 -83.50959961 37.6037793 -82.87060547 37.14208984 C-80.92259256 35.74829074 -78.96436307 34.37064535 -77 33 C-76.36674805 32.55688477 -75.73349609 32.11376953 -75.08105469 31.65722656 C-19.78457731 -6.5948591 -19.78457731 -6.5948591 0 0 Z " fill="#FCFDFD" transform="translate(497,307)"/>
<path d="M0 0 C0.74127742 -0.00523668 1.48255484 -0.01047336 2.24629521 -0.01586872 C4.71952958 -0.03081881 7.19255615 -0.03157277 9.66583252 -0.03224182 C11.44357653 -0.03986671 13.22131724 -0.04829477 14.99905396 -0.0574646 C19.82153675 -0.07938491 24.64395614 -0.08820527 29.46648312 -0.09329104 C32.48211096 -0.09693775 35.49772228 -0.10317948 38.51334381 -0.11029243 C49.04171984 -0.13477906 59.57004666 -0.14783698 70.09844971 -0.15138245 C79.89942671 -0.15501635 89.70009031 -0.18490339 99.50097156 -0.22678703 C107.92581842 -0.26152308 116.35056159 -0.27693147 124.77547956 -0.27762848 C129.80270869 -0.27842021 134.82961848 -0.28711087 139.85677338 -0.31562614 C144.58801697 -0.34186335 149.31867775 -0.34398051 154.04996109 -0.3279705 C155.7808904 -0.32616047 157.51185365 -0.33280637 159.24271011 -0.34878922 C176.77468347 -0.50073792 176.77468347 -0.50073792 184.43634033 5.27415466 C188.19329531 9.20754911 188.71050725 12.96979789 188.93634033 18.33665466 C188.76494046 23.41516953 187.91238345 26.40084947 184.43634033 30.27415466 C184.00321533 30.85165466 183.57009033 31.42915466 183.12384033 32.02415466 C178.40022715 35.52312739 172.28472398 35.56917141 166.62507629 35.55503845 C165.86928266 35.5609807 165.11348903 35.56692294 164.33479255 35.57304525 C161.81854722 35.5902994 159.30249351 35.59342537 156.78619385 35.59642029 C154.97550048 35.60568485 153.16481099 35.61573527 151.35412598 35.62651062 C146.44713645 35.65267633 141.54020154 35.66563135 136.6331532 35.67453194 C133.56544024 35.68040429 130.49774204 35.68861575 127.43003654 35.69754028 C117.8256044 35.72486312 108.2212062 35.74421193 98.6167379 35.75194407 C87.54032443 35.76091132 76.46440386 35.79604584 65.38814026 35.85394526 C56.81723414 35.89718995 48.2464667 35.91735305 39.67545265 35.9200263 C34.55993189 35.92212082 29.44487533 35.93390235 24.32946968 35.96966553 C19.51853822 36.00264905 14.70841948 36.00692862 9.89741516 35.98938751 C8.13499714 35.9878481 6.37253518 35.99651517 4.61022758 36.01630402 C-11.47595669 36.18630248 -11.47595669 36.18630248 -17.24607944 30.8061142 C-21.68689155 25.6427516 -22.09123086 21.83227483 -21.91912842 15.15306091 C-21.44194864 11.28842905 -20.15262911 9.15078738 -17.56365967 6.27415466 C-16.94490967 5.53165466 -16.32615967 4.78915466 -15.68865967 4.02415466 C-11.06231116 0.21422059 -5.7738511 -0.0203908 0 0 Z " fill="#047BDA" transform="translate(428.56365966796875,759.7258453369141)"/>
<path d="M0 0 C0.66253778 -0.00367669 1.32507557 -0.00735338 2.00769025 -0.01114148 C4.23229225 -0.02217239 6.45684753 -0.02602116 8.68147278 -0.02983093 C10.27482756 -0.03609609 11.86818088 -0.04274294 13.46153259 -0.04974365 C18.698654 -0.07078226 23.93577569 -0.08114664 29.17292786 -0.09111023 C30.97653532 -0.09515802 32.78014262 -0.09927495 34.58374977 -0.10346031 C43.05838495 -0.12251246 51.53301142 -0.13674279 60.00766391 -0.14507228 C69.78563367 -0.15484169 79.56337687 -0.18115335 89.34126681 -0.22157317 C96.90147663 -0.25175139 104.46162158 -0.26654282 112.02189046 -0.26985329 C116.53598888 -0.27220207 121.04984528 -0.28113984 125.56387901 -0.30631447 C129.81321796 -0.32962975 134.06215613 -0.33381464 138.31154251 -0.32355309 C139.86754122 -0.32305843 141.42355989 -0.32935809 142.97949791 -0.34310913 C159.55314591 -0.48133718 159.55314591 -0.48133718 166.13284588 5.6687727 C169.35704654 9.14272277 169.8869972 12.49008951 170.06745911 17.14717102 C169.78885834 22.72615139 169.10610373 25.84336403 165.50495911 30.14717102 C158.12558871 36.21114668 149.88743093 35.85372483 140.83088684 35.77827454 C139.25634456 35.78342008 137.68180806 35.79070614 136.10728455 35.79995728 C131.85306475 35.81839736 127.59947549 35.80558052 123.34528232 35.78586698 C118.88206738 35.7694206 114.4188905 35.77830154 109.95565796 35.78338623 C102.46328213 35.78790005 94.97115654 35.77208045 87.47883606 35.74409485 C78.82916491 35.71203443 70.17994464 35.71206553 61.53024143 35.72930962 C53.19171486 35.74519773 44.85335286 35.73842723 36.51483345 35.7213726 C32.9739294 35.71451826 29.4331579 35.71551785 25.89225578 35.72291756 C21.7199089 35.73060401 17.54807249 35.71837787 13.37581253 35.69106865 C11.84886375 35.68420882 10.32186707 35.68406099 8.79491997 35.69128418 C-7.81256844 35.76076726 -7.81256844 35.76076726 -14.03563786 29.62923527 C-18.36139913 24.65267204 -18.84353166 21.39678908 -18.77629089 14.97529602 C-18.24059992 9.58862566 -15.90105501 6.45030606 -11.93254089 2.77217102 C-7.89036287 0.07738567 -4.75554943 0.01709429 0 0 Z " fill="#0473D5" transform="translate(436.4950408935547,805.8528289794922)"/>
<path d="M0 0 C0.66 0 1.32 0 2 0 C2.17485251 4.3740028 2.30089153 8.74608366 2.38452148 13.12255859 C2.41942788 14.60664353 2.46697457 16.09049308 2.52807617 17.57373047 C2.9380537 27.79216201 1.84140441 34.00474277 -5 42 C-6.81441924 44.78400637 -8.44539298 47.6601611 -10.0625 50.5625 C-10.48732666 51.32409424 -10.91215332 52.08568848 -11.34985352 52.87036133 C-14.89875909 59.4312781 -17.46993672 66.14101466 -19.74609375 73.23046875 C-21 77 -21 77 -22.5 80.42578125 C-24.23272296 84.55453518 -25.43636418 88.67350018 -26.5625 93 C-26.78010986 93.83088135 -26.99771973 94.6617627 -27.22192383 95.51782227 C-28.79476159 101.73002559 -29.85149022 107.83956364 -30.54296875 114.21484375 C-30.79886349 116.33417711 -31.08578769 118.45223666 -31.48364258 120.54956055 C-33.08573914 129.0214586 -33.35853152 137.34462057 -33.3125 145.9375 C-33.30926727 147.02623413 -33.30926727 147.02623413 -33.30596924 148.13696289 C-33.18928573 172.7173894 -29.06521993 197.64964139 -19.78515625 220.5234375 C-19 223 -19 223 -20 226 C-32.49714782 204.80077633 -42.78230859 182.38289785 -47 158 C-47.12697266 157.27151855 -47.25394531 156.54303711 -47.38476562 155.79248047 C-55.37164328 106.90074199 -42.05439148 56.84455787 -13.41357422 16.93920898 C-4.27078784 4.43357572 -4.27078784 4.43357572 0 0 Z " fill="#3CAEF6" transform="translate(390,366)"/>
<path d="M0 0 C33.66 0 67.32 0 102 0 C100.56485127 8.61089241 97.32387904 14.75637953 90.5 20.30078125 C78.02273465 28.78142254 66.56864415 31.35390552 51.6875 31.3125 C50.54087891 31.32861328 49.39425781 31.34472656 48.21289062 31.36132812 C33.41722918 31.36970145 18.79420651 27.4062333 7.7578125 17.0625 C3.52889109 12.10056554 0 6.59052647 0 0 Z " fill="#024BA8" transform="translate(461,856)"/>
<path d="M0 0 C0.82177734 -0.00644531 1.64355469 -0.01289063 2.49023438 -0.01953125 C3.34037109 -0.00019531 4.19050781 0.01914063 5.06640625 0.0390625 C5.91267578 0.01972656 6.75894531 0.00039062 7.63085938 -0.01953125 C8.45392578 -0.01308594 9.27699219 -0.00664062 10.125 0 C10.86935303 0.00563965 11.61370605 0.0112793 12.38061523 0.01708984 C16.11030144 1.0903517 17.38858151 2.47266564 19.62890625 5.6640625 C20.36546694 9.7051203 20.30548481 13.69109063 20.2578125 17.7890625 C20.26022446 18.96871582 20.26263641 20.14836914 20.26512146 21.36376953 C20.26414298 23.85517746 20.25074934 26.34660713 20.22583008 28.83789062 C20.19152835 32.65049124 20.20517207 36.46077354 20.22460938 40.2734375 C20.21771082 42.69532236 20.20803835 45.11720125 20.1953125 47.5390625 C20.20027237 48.67875488 20.20523224 49.81844727 20.21034241 50.99267578 C20.09409737 58.80729921 20.09409737 58.80729921 17.88256836 62.88037109 C15.34400482 64.88955159 14.20650877 65.30530515 11.00390625 65.328125 C10.1325 65.33457031 9.26109375 65.34101563 8.36328125 65.34765625 C7.00976562 65.31865234 7.00976562 65.31865234 5.62890625 65.2890625 C4.7265625 65.30839844 3.82421875 65.32773438 2.89453125 65.34765625 C1.58742188 65.33798828 1.58742188 65.33798828 0.25390625 65.328125 C-0.53757812 65.32248535 -1.3290625 65.3168457 -2.14453125 65.31103516 C-4.37109375 64.6640625 -4.37109375 64.6640625 -6.62695312 62.88037109 C-9.32498683 57.9050217 -8.94193873 53.11230189 -8.90234375 47.5390625 C-8.90617065 46.35940918 -8.90999756 45.17975586 -8.91394043 43.96435547 C-8.91665956 41.47297308 -8.90929845 38.98156214 -8.89257812 36.49023438 C-8.87117054 32.67773768 -8.89238192 28.86712561 -8.91796875 25.0546875 C-8.91532548 22.63280834 -8.91020051 20.21093036 -8.90234375 17.7890625 C-8.91044067 16.64937012 -8.9185376 15.50967773 -8.92687988 14.33544922 C-8.83420353 6.51036687 -8.83420353 6.51036687 -6.61108398 2.44775391 C-4.15431162 0.49144013 -3.10022627 0.02352475 0 0 Z " fill="#05BEF6" transform="translate(506.37109375,137.3359375)"/>
<path d="M0 0 C3.39801797 2.0369546 4.83328554 4.09619767 6.48046875 7.65625 C6.91834717 8.58767822 7.35622559 9.51910645 7.80737305 10.47875977 C8.26281494 11.47576904 8.71825684 12.47277832 9.1875 13.5 C10.15596068 15.58216584 11.12471545 17.66419492 12.09375 19.74609375 C12.57714844 20.79265137 13.06054688 21.83920898 13.55859375 22.91748047 C14.91053801 25.80868104 16.30286104 28.67483218 17.71875 31.53515625 C18.13616455 32.3859375 18.5535791 33.23671875 18.98364258 34.11328125 C19.7670601 35.70712521 20.5581809 37.29721351 21.3581543 38.8828125 C23.78070065 43.87411741 24.89802947 47.62632172 23.421875 53.171875 C21.26960831 55.93907503 18.41172932 56.96963027 15.25 58.25 C14.03828125 58.77078125 12.8265625 59.2915625 11.578125 59.828125 C8.00458385 60.99849874 5.70379494 61.64143935 2 61 C-1.30569572 57.45669075 -3.27205324 53.68517869 -5.27734375 49.30078125 C-5.57057022 48.66569138 -5.86379669 48.0306015 -6.16590881 47.37626648 C-7.09634431 45.3579543 -8.01729721 43.33549511 -8.9375 41.3125 C-9.85337559 39.31393985 -10.77125161 37.31631427 -11.69013977 35.31913757 C-12.28665246 34.02238536 -12.88187226 32.72503758 -13.47575378 31.42707825 C-15.5520952 26.90730279 -17.75195025 22.4678151 -20.07519531 18.0703125 C-21.77209579 14.27154902 -21.90540158 12.10913023 -21 8 C-18.60669795 5.74194597 -15.94968399 4.41327872 -13 3 C-11.989375 2.401875 -10.97875 1.80375 -9.9375 1.1875 C-6.35761277 -0.25968845 -3.82977877 -0.42553097 0 0 Z " fill="#03B5F7" transform="translate(422,162)"/>
<path d="M0 0 C4.30784529 0.37726547 7.46680166 1.69916302 11.2109375 3.7109375 C11.83871094 4.02804688 12.46648438 4.34515625 13.11328125 4.671875 C17.69013074 7.04432398 17.69013074 7.04432398 18.8359375 9.3359375 C19.29206781 14.91842789 18.28569135 18.19206437 15.6484375 23.0859375 C14.91862313 24.46703651 14.19234676 25.85000828 13.46875 27.234375 C13.05786133 28.01780273 12.64697266 28.80123047 12.22363281 29.60839844 C10.592449 32.81451835 9.0483555 36.05861223 7.515625 39.3125 C7.08466774 40.2240686 7.08466774 40.2240686 6.64500427 41.15405273 C5.47961566 43.61985378 4.3146815 46.08574679 3.16299438 48.5579834 C2.34668656 50.30782488 1.51924554 52.0524594 0.69140625 53.796875 C-0.02559448 55.32513916 -0.02559448 55.32513916 -0.75708008 56.88427734 C-2.1640625 59.3359375 -2.1640625 59.3359375 -5.1640625 61.3359375 C-10.80064642 61.91716798 -14.15596481 60.72389116 -19.0390625 57.9609375 C-20.17085937 57.33445313 -21.30265625 56.70796875 -22.46875 56.0625 C-25.1640625 54.3359375 -25.1640625 54.3359375 -26.1640625 52.3359375 C-26.56109225 46.98192832 -25.72632367 43.5811001 -23.34765625 38.80078125 C-23.05351334 38.20020401 -22.75937042 37.59962677 -22.45631409 36.98085022 C-21.51751135 35.07173653 -20.560054 33.172729 -19.6015625 31.2734375 C-18.98506977 30.02731446 -18.36982591 28.78057276 -17.75585938 27.53320312 C-16.52907819 25.04694337 -15.29229987 22.56608151 -14.04638672 20.08935547 C-12.75258416 17.51703115 -11.47458749 14.93764726 -10.20751953 12.35205078 C-9.89138199 11.71014297 -9.57524445 11.06823517 -9.24952698 10.40687561 C-8.37400252 8.628467 -7.50148529 6.84857882 -6.62915039 5.06860352 C-4.1477818 0.44038177 -4.1477818 0.44038177 0 0 Z " fill="#03B3F8" transform="translate(604.1640625,161.6640625)"/>
<path d="M0 0 C0.66 0 1.32 0 2 0 C-0.54697987 14.14298576 -0.54697987 14.14298576 -6 18 C-9.63314115 20.33918546 -13.1224306 20.28627222 -17.31210327 20.26742554 C-18.05041055 20.27195665 -18.78871783 20.27648776 -19.54939806 20.28115618 C-22.02436929 20.29382064 -24.49912104 20.29217851 -26.97412109 20.29052734 C-28.74820743 20.29651131 -30.52229116 20.30331655 -32.29637146 20.31088257 C-37.11664557 20.32856294 -41.93684868 20.3332388 -46.75715208 20.33451414 C-50.78054131 20.33641274 -54.80391399 20.34376981 -58.82729685 20.35085833 C-68.31944341 20.36714754 -77.81155202 20.37202679 -87.30371094 20.37060547 C-97.09672891 20.3694038 -106.88952658 20.39050955 -116.6824888 20.4220928 C-125.08939825 20.44824013 -133.49623568 20.45897342 -141.90318549 20.45769465 C-146.9246753 20.45718457 -151.94596935 20.462893 -156.96741867 20.48405075 C-161.69035769 20.5034072 -166.41291368 20.50357539 -171.13586617 20.48901749 C-172.86846666 20.48692508 -174.60109096 20.49165596 -176.33365059 20.5037384 C-178.70086074 20.51917646 -181.06674777 20.5098935 -183.43392944 20.49447632 C-184.11798556 20.50476344 -184.80204167 20.51505057 -185.50682676 20.52564943 C-190.42634596 20.45494699 -193.18112254 19.01969156 -197 16 C-199.88996359 12.96585167 -200.5526144 10.35233775 -201.1875 6.25 C-201.34605469 5.26515625 -201.50460937 4.2803125 -201.66796875 3.265625 C-201.77753906 2.51796875 -201.88710938 1.7703125 -202 1 C-199.41025186 3.26688829 -199.03143689 3.75748684 -198.5625 7.375 C-197.92720788 11.46910481 -196.89746425 13.10253575 -194 16 C-190.50921318 17.16359561 -187.38696562 17.13860732 -183.75672913 17.12698364 C-182.64230781 17.12932363 -182.64230781 17.12932363 -181.50537294 17.13171089 C-179.00885167 17.13570849 -176.5123909 17.132536 -174.01586914 17.12939453 C-172.2288357 17.13074913 -170.44180253 17.1325294 -168.6547699 17.13470459 C-163.79532288 17.13927224 -158.93589703 17.137492 -154.07644963 17.1343255 C-148.99606979 17.13179808 -143.9156918 17.13414055 -138.83531189 17.13571167 C-130.30174432 17.13753241 -121.7681854 17.13512973 -113.23461914 17.13037109 C-103.3638461 17.1249304 -93.49309372 17.12669012 -83.62232119 17.1321975 C-75.15432593 17.13673342 -66.6863369 17.13737677 -58.21834081 17.13475883 C-53.15785123 17.13319848 -48.09737136 17.13299567 -43.0368824 17.13629532 C-38.27878285 17.1391809 -33.52070996 17.13718562 -28.7626133 17.13140106 C-27.01466669 17.13007709 -25.26671785 17.13046145 -23.51877213 17.13266373 C-21.13590247 17.13538948 -18.75311868 17.13197653 -16.37025452 17.12698364 C-15.67579965 17.12921436 -14.98134479 17.13144509 -14.26584584 17.13374341 C-11.02963388 17.12055902 -8.09579078 16.98958438 -5 16 C-4.67 14.68 -4.34 13.36 -4 12 C-3.34 12 -2.68 12 -2 12 C-1.34 8.04 -0.68 4.08 0 0 Z " fill="#3046D2" transform="translate(612,723)"/>
<path d="M0 0 C0.66 0.33 1.32 0.66 2 1 C-10.78380935 9.7038702 -32.29212943 22 -48 22 C-46.9024777 19.00675737 -46.32317108 18.15389099 -43.375 16.75 C-42.59125 16.5025 -41.8075 16.255 -41 16 C-41 15.34 -41 14.68 -41 14 C-39.02 13.34 -37.04 12.68 -35 12 C-37.57784846 14.64752004 -39.91648098 16.94432065 -43 19 C-38.8287374 17.34467893 -34.66297934 15.67604382 -30.5 14 C-29.88585236 13.75278198 -29.27170471 13.50556396 -28.63894653 13.25085449 C-20.40015057 9.92307955 -12.31614897 6.43180397 -4.49609375 2.19921875 C-3.02408484 1.41392828 -1.51519942 0.69832804 0 0 Z " fill="#184AE0" transform="translate(542,680)"/>
<path d="M0 0 C1.0617041 0.32742188 2.1234082 0.65484375 3.21728516 0.9921875 C8.9611039 2.41976273 14.63968745 2.21114063 20.5234375 2.125 C21.705961 2.11742676 22.8884845 2.10985352 24.10684204 2.10205078 C27.86304662 2.0777217 31.6189364 2.04043436 35.375 2 C40.34113677 1.94698748 45.30712585 1.90696093 50.2734375 1.875 C51.99208511 1.85010498 51.99208511 1.85010498 53.74545288 1.82470703 C54.80060089 1.81810059 55.8557489 1.81149414 56.94287109 1.8046875 C57.87360443 1.79421387 58.80433777 1.78374023 59.76327515 1.77294922 C62 2 62 2 64 4 C56.24614942 4.09272074 48.49242894 4.16377508 40.73816299 4.20724869 C37.13741714 4.22811513 33.53705084 4.25641421 29.93652344 4.30175781 C26.46112087 4.34525125 22.98608312 4.36914421 19.51042938 4.37950897 C17.54054216 4.39048615 15.57080153 4.421707 13.60113525 4.45318604 C11.79972076 4.45363922 11.79972076 4.45363922 9.96191406 4.45410156 C8.3763974 4.46742523 8.3763974 4.46742523 6.7588501 4.48101807 C3.34423309 3.88566406 2.16990963 2.62890863 0 0 Z " fill="#0D58B6" transform="translate(414,791)"/>
<path d="M0 0 C0 3.88962381 -1.24443901 4.90358756 -3.6875 7.875 C-4.37199219 8.71804688 -5.05648437 9.56109375 -5.76171875 10.4296875 C-9.88119383 15.160254 -14.38282046 19.30365119 -19.1875 23.3125 C-19.98704102 23.9940918 -19.98704102 23.9940918 -20.80273438 24.68945312 C-24.76045583 28 -24.76045583 28 -27 28 C-27 27.34 -27 26.68 -27 26 C-25.34765625 24.58984375 -25.34765625 24.58984375 -23.0625 22.9375 C-15.65702635 17.33398619 -9.4296025 10.67293909 -3.41015625 3.62890625 C-2.32370902 2.37392427 -1.17374345 1.17374345 0 0 Z " fill="#0B52E5" transform="translate(607,627)"/>
<path d="M0 0 C1.40696016 4.22088049 -0.24798308 7.13947135 -1.75 11.125 C-2.31043226 12.657356 -2.87033277 14.18990659 -3.4296875 15.72265625 C-3.83719238 16.82697998 -3.83719238 16.82697998 -4.25292969 17.95361328 C-5.58705079 21.60805873 -6.79008775 25.30304591 -8 29 C-8.66 28.34 -9.32 27.68 -10 27 C-9.71125 26.360625 -9.4225 25.72125 -9.125 25.0625 C-8.21840236 22.59453976 -7.71076858 20.55303407 -7.25 18 C-5.92493152 11.58102074 -2.87364684 5.84669656 0 0 Z " fill="#1142DA" transform="translate(623,691)"/>
<path d="M0 0 C0.66 0.33 1.32 0.66 2 1 C-2.75 5 -2.75 5 -5 5 C-5 5.66 -5 6.32 -5 7 C-7.51953125 8.69140625 -7.51953125 8.69140625 -10.8125 10.5625 C-11.89144531 11.18253906 -12.97039063 11.80257812 -14.08203125 12.44140625 C-17 14 -17 14 -20 15 C-20 14.34 -20 13.68 -20 13 C-18.59472656 11.90258789 -18.59472656 11.90258789 -16.640625 10.72265625 C-15.93679688 10.29146484 -15.23296875 9.86027344 -14.5078125 9.41601562 C-13.76273438 8.96935547 -13.01765625 8.52269531 -12.25 8.0625 C-5.94967454 4.29116068 -5.94967454 4.29116068 0 0 Z " fill="#1551E5" transform="translate(565,665)"/>
<path d="M0 0 C0.66 0.33 1.32 0.66 2 1 C-0.64 2.98 -3.28 4.96 -6 7 C-2.535 6.505 -2.535 6.505 1 6 C-1.92965912 8.92965912 -4.680053 9.94133569 -8.8125 10.125 C-9.534375 10.08375 -10.25625 10.0425 -11 10 C-9.9024777 7.00675737 -9.32317108 6.15389099 -6.375 4.75 C-5.59125 4.5025 -4.8075 4.255 -4 4 C-4 3.34 -4 2.68 -4 2 C-2.125 0.9375 -2.125 0.9375 0 0 Z " fill="#0938D7" transform="translate(505,692)"/>
<path d="M0 0 C2.58974814 2.26688829 2.96856311 2.75748684 3.4375 6.375 C4.07279212 10.46910481 5.10253575 12.10253575 8 15 C8.99 15.33 9.98 15.66 11 16 C11 16.66 11 17.32 11 18 C6.52354795 16.63219521 4.39315117 15.04360025 2 11 C1.09298868 7.36170599 0.4944769 3.71508305 0 0 Z " fill="#0E2FD2" transform="translate(410,724)"/>
<path d="M0 0 C0.66 0 1.32 0 2 0 C-0.55520188 14.18864131 -0.55520188 14.18864131 -6 18 C-6.99 18.33 -7.98 18.66 -9 19 C-9 18.34 -9 17.68 -9 17 C-7.68 16.67 -6.36 16.34 -5 16 C-4.67 14.68 -4.34 13.36 -4 12 C-3.34 12 -2.68 12 -2 12 C-1.34 8.04 -0.68 4.08 0 0 Z " fill="#0E30D2" transform="translate(612,723)"/>
<path d="M0 0 C0.99 0.33 1.98 0.66 3 1 C2.071875 1.9590625 2.071875 1.9590625 1.125 2.9375 C-1.56594788 6.81563076 -2.23906545 10.40435579 -3 15 C-3.33 15 -3.66 15 -4 15 C-4.45356243 8.53673535 -3.59378942 5.39068413 0 0 Z " fill="#0C4DAF" transform="translate(422,811)"/>
<path d="M0 0 C0 3 0 3 -1.390625 4.5703125 C-2.31101562 5.33988281 -2.31101562 5.33988281 -3.25 6.125 C-3.85328125 6.64320313 -4.4565625 7.16140625 -5.078125 7.6953125 C-7.07471451 9.05072083 -8.64237402 9.57228909 -11 10 C-7.50640535 6.40365256 -3.88901869 3.16548033 0 0 Z " fill="#1B5DE7" transform="translate(578,655)"/>
<path d="M0 0 C0 3.77910478 -0.99703962 4.46106101 -3.5 7.1875 C-4.1496875 7.90292969 -4.799375 8.61835937 -5.46875 9.35546875 C-5.9740625 9.89816406 -6.479375 10.44085937 -7 11 C-7.66 10.67 -8.32 10.34 -9 10 C-7.8758824 8.70756532 -6.75067408 7.41607925 -5.625 6.125 C-4.99851562 5.40570312 -4.37203125 4.68640625 -3.7265625 3.9453125 C-2.52573166 2.5923402 -1.2791655 1.2791655 0 0 Z " fill="#125CE7" transform="translate(607,627)"/>
<path d="M0 0 C0.66 0.33 1.32 0.66 2 1 C1.67 1.99 1.34 2.98 1 4 C-1.28515625 4.94921875 -1.28515625 4.94921875 -4.0625 5.6875 C-5.44115234 6.06455078 -5.44115234 6.06455078 -6.84765625 6.44921875 C-7.55792969 6.63097656 -8.26820313 6.81273437 -9 7 C-6.28672425 4.15635664 -3.30410823 2.12931419 0 0 Z " fill="#D6E2FA" transform="translate(506,693)"/>
<path d="M0 0 C-3.25 1.625 -3.25 1.625 -7 3 C-9.4375 2.1875 -9.4375 2.1875 -11 1 C-3.57142857 -1.42857143 -3.57142857 -1.42857143 0 0 Z " fill="#BDF1FC" transform="translate(497,307)"/>
<path d="M0 0 C2.64 0 5.28 0 8 0 C5.94766315 2.2477975 4.99332739 3.0022242 2 4 C1.34 2.68 0.68 1.36 0 0 Z " fill="#E6F8FD" transform="translate(482,309)"/>
</svg>
